<?xml version="1.0" encoding="UTF-8"?>
<!DOCTYPE svg PUBLIC "-//W3C//DTD SVG 1.1//EN" "http://www.w3.org/Graphics/SVG/1.1/DTD/svg11.dtd">
<!-- Creator: CorelDRAW X7 -->
<svg xmlns="http://www.w3.org/2000/svg" xml:space="preserve" width="168.566mm" height="72.3978mm" version="1.1" style="shape-rendering:geometricPrecision; text-rendering:geometricPrecision; image-rendering:optimizeQuality; fill-rule:evenodd; clip-rule:evenodd"
viewBox="0 0 16265 6986"
 xmlns:xlink="http://www.w3.org/1999/xlink">
 <defs>
  <style type="text/css">
   <![CDATA[
    .fil1 {fill:#FEFEFE}
    .fil0 {fill:#324979}
    .fil7 {fill:#0AF2AA}
    .fil5 {fill:#121212}
    .fil6 {fill:#131313}
    .fil4 {fill:#2C765A}
    .fil3 {fill:#2C7B5B}
    .fil2 {fill:#3CB4EC}
   ]]>
  </style>
 </defs>
 <g id="Layer_x0020_1">
  <metadata id="CorelCorpID_0Corel-Layer"/>
  <g id="_2559753172848">
   <path class="fil0" d="M9523 6963l-307 0c-13,-258 -25,-517 -37,-773 -12,-4 -23,-9 -35,-13 -112,198 -219,399 -339,592 -193,308 -260,259 -415,5 -125,-205 -245,-412 -404,-607 0,262 0,524 0,793 -100,0 -182,0 -280,0 -4,-88 -10,-165 -10,-242 -1,-362 -6,-725 4,-1087 6,-199 171,-278 288,-92 204,325 396,657 608,1012 107,-183 206,-351 305,-520 93,-161 178,-328 282,-483 123,-184 286,-126 310,70 24,207 26,417 29,626l1 719z"/>
   <path class="fil0" d="M2228 6145c0,271 0,541 0,818l-273 -2c1,-322 -2,-1015 4,-1376 4,-169 182,-210 265,-78 175,278 337,563 503,846 34,57 68,114 121,201 69,-118 126,-212 181,-308 142,-245 279,-493 429,-733 32,-51 112,-98 169,-97 38,1 103,92 104,144l5 1403 -271 0c0,-278 0,-549 0,-819 -14,-4 -27,-9 -41,-13 -137,240 -270,483 -414,719 -33,54 -101,112 -158,117 -48,5 -120,-53 -151,-102 -151,-239 -290,-484 -434,-727 -13,2 -26,5 -39,7z"/>
   <path class="fil0" d="M7373 6963l-262 0 -1 -360c-312,0 -662,8 -984,8l2 352 -256 0 7 -1021c57,-307 298,-475 608,-504 231,-21 464,-11 697,-15 117,-3 187,55 188,170 4,453 1,893 1,1370zm-1227 -671l0 0c310,0 624,0 956,0 -10,-197 -19,-380 -28,-575 -195,0 -365,-11 -533,3 -301,24 -465,262 -395,572z"/>
   <path class="fil0" d="M1355 6609c-322,0 -653,0 -979,0l0 354c-84,0 -181,0 -302,0 0,-340 2,-684 55,-1014 44,-288 309,-489 603,-511 237,-18 475,-12 713,-15 94,-1 173,31 173,141 2,463 1,927 1,1399l-267 0 3 -354zm-20 -893l0 0c-72,0 -133,0 -194,0 -124,1 -251,-10 -373,6 -279,38 -430,265 -377,569 311,0 626,0 944,0 0,-188 0,-372 0,-575z"/>
   <path class="fil0" d="M15966 6036c0,-202 0,-393 0,-580l299 -1 -10 1508 -279 0 8 -605c-316,0 -655,3 -982,3 0,194 0,394 0,598 -106,0 -187,0 -283,0 0,-513 0,-1014 0,-1526 84,0 166,0 273,0 0,200 0,395 0,603 335,0 644,0 974,0z"/>
   <path class="fil0" d="M12804 6680l-1 283c-378,0 -727,1 -1086,-2 -169,-9 -298,-168 -303,-340 -12,-346 -12,-691 -2,-1037 2,-54 85,-151 133,-152l1258 -6 0 286c-375,0 -722,-3 -1103,-3 0,302 -4,584 6,865 1,33 82,88 129,91 243,13 486,13 730,16l239 -1z"/>
   <path class="fil0" d="M14430 6963c-353,0 -702,18 -1056,2 -175,-8 -312,-165 -320,-343 -12,-277 -17,-555 -4,-831 12,-242 156,-365 400,-368l980 -2 0 295c-301,0 -602,8 -906,-3 -151,-5 -201,46 -194,194 10,204 7,408 2,612 -3,99 34,148 134,149l964 8 0 287z"/>
   <path class="fil0" d="M10607 6963l-306 0c0,-414 0,-823 0,-1248 -211,0 -395,0 -595,0 0,-101 0,-182 0,-279 488,0 966,-20 1465,-20l0 299 -564 0c0,424 0,816 0,1248z"/>
   <path class="fil0" d="M5652 5487c-245,227 -489,453 -767,710 274,248 534,483 795,719 -117,142 -439,44 -550,-96l-483 -441 -242 -138 15 -191c183,52 316,-79 422,-186 99,-100 212,-190 297,-302 93,-122 419,-233 513,-75z"/>
   <path class="fil0" d="M4079 5433c95,0 172,0 264,0l0 1530 -264 0 0 -1530z"/>
   <path class="fil0" d="M12702 6056l-2 280c-302,0 -602,0 -899,0 0,-99 0,-185 0,-280l901 0z"/>
   <path class="fil1" d="M9383 6877l-301 0 -17 -793c-93,163 -211,335 -304,498 -42,73 -81,149 -127,220 -83,132 -206,132 -288,-4 -145,-239 -285,-482 -462,-714l0 793 -289 0c-12,-361 -7,-931 0,-1341 4,-198 178,-252 285,-82 205,325 397,658 606,1009 39,-59 74,-106 103,-157 168,-289 330,-580 503,-865 32,-53 113,-113 165,-107 47,5 120,94 121,148l5 1395z"/>
   <path class="fil1" d="M3631 6877l-282 0c0,-277 9,-547 9,-816 -13,-4 -25,-8 -38,-12 -132,231 -261,465 -400,692 -37,61 -113,151 -156,144 -73,-13 -152,-81 -196,-148 -143,-222 -272,-454 -439,-676l0 816 -279 0c0,-78 0,-148 0,-219 0,-386 -4,-772 4,-1157 4,-166 181,-208 265,-73 175,277 337,563 504,846 33,56 68,112 119,197 104,-176 196,-329 286,-484 108,-186 208,-377 325,-557 33,-51 114,-98 171,-95 37,2 101,93 102,146l5 1396z"/>
   <path class="fil1" d="M7270 6877l-264 1 -4 -346 -953 0 -3 345 -309 0c2,-362 -22,-711 43,-1062 88,-268 299,-429 581,-457 241,-23 486,-13 730,-16 122,-2 177,72 177,182 3,448 2,880 2,1353zm-266 -1239l-34 -3c-197,0 -361,-9 -524,2 -310,21 -484,270 -400,572 309,0 621,0 950,0l8 -571z"/>
   <path class="fil1" d="M1514 6877l-281 0 1 -345 -950 0 0 345c-85,0 -197,0 -272,0 0,-337 -33,-671 10,-996 39,-301 306,-502 608,-525 237,-17 475,-12 712,-14 96,-1 171,35 171,145 2,462 1,911 1,1390zm-281 -1243l0 0c-154,0 -289,0 -424,0 -45,0 -91,-3 -136,3 -285,38 -451,279 -383,574 311,0 625,0 943,0 0,-189 0,-370 0,-577z"/>
   <path class="fil1" d="M14607 5342l283 0c0,203 0,404 0,611 327,0 635,0 962,0l-1 -611c93,-1 176,0 281,0 0,522 0,1031 0,1535l-281 1c-1,0 1,-522 0,-598 -317,0 -631,1 -957,1 0,197 0,393 0,598 -99,0 -181,0 -278,0l-9 -1537z"/>
   <path class="fil1" d="M11593 5631c0,288 4,543 -2,798 -3,107 34,158 142,160 317,12 660,17 978,18l0 270 -978 -12c-253,-2 -425,-129 -431,-381 -7,-317 -2,-634 -3,-952 -1,-110 34,-190 161,-191l1250 -1 2 291c-378,0 -739,0 -1119,0z"/>
   <path class="fil1" d="M14345 5342l0 292c-259,0 -500,-2 -747,1 -410,5 -369,-70 -371,368 0,130 11,261 -3,390 -16,156 61,203 194,204 243,2 487,2 730,3l197 0 0 277 -1007 0c-209,-8 -381,-136 -390,-343 -13,-283 -14,-566 0,-848 10,-198 131,-318 319,-338 140,-14 286,-3 427,-3l651 -3z"/>
   <path class="fil1" d="M11113 5354l-1 272c-206,0 -397,0 -610,0 0,431 0,835 0,1251 -106,0 -193,0 -306,0 0,-415 0,-818 0,-1243 -211,0 -395,0 -595,0 0,-101 0,-182 0,-280l1512 0z"/>
   <path class="fil1" d="M4396 5987c551,-348 597,-735 1174,-627 -280,253 -530,479 -816,737 298,269 558,504 819,739 -116,141 -439,41 -549,-98l-619 -589 -77 -1 0 -161 68 0z"/>
   <path class="fil1" d="M3973 5352c96,0 173,0 265,0 0,516 0,1021 0,1540 -92,-5 -174,-10 -265,-15 0,-512 0,-1013 0,-1525z"/>
   <path class="fil1" d="M12576 5978l0 274c-299,0 -580,0 -878,0 0,-93 0,-179 0,-274l878 0z"/>
  </g>
  <g id="_2559753179376">
   <path class="fil2" d="M6083 1363l253 201c532,-405 1184,-834 1745,-1230l1800 1251 272 -177 -2068 -1408 -2002 1363z"/>
   <path class="fil2" d="M6590 1736c97,67 164,114 265,173l1207 -854c79,47 195,125 288,188 79,54 179,146 291,215l691 468c79,-11 236,-105 268,-167l-1539 -1034 -1471 1011z"/>
   <path class="fil2" d="M7167 2129l230 164 682 -492 703 506 261 -181 -963 -661c-265,176 -645,466 -913,664z"/>
   <path class="fil3" d="M10149 1442l2 313 -2070 1324 -33 24 123 81c88,-31 1696,-1112 2055,-1353l-5 -367 -73 -60 1 38z"/>
   <path class="fil4" d="M9795 2548l0 167 -1715 1140 -6 -4c45,33 82,53 133,93l1694 -1126 0 -318 -106 48z"/>
   <polygon class="fil4" points="6309,1546 6446,1635 8198,410 8083,332 "/>
   <polygon class="fil4" points="6839,1899 7004,2015 8192,1137 8062,1055 "/>
   <path class="fil4" d="M9145 3762l-8 163c-150,91 -1017,688 -1102,674l188 168 1039 -726 1 -338 -118 59z"/>
   <polygon class="fil4" points="7397,2293 7526,2385 8215,1885 8080,1798 "/>
   <path class="fil5" d="M6428 1622l179 127c19,13 1305,-913 1454,-1024l1539 1034 281 -174 -1683 -1175 -13 -9 -1757 1221z"/>
   <polygon class="fil6" points="6970,1990 7167,2129 8081,1475 9043,2126 9332,1926 8192,1137 "/>
   <polygon class="fil5" points="7526,2385 8051,2755 8762,2292 8215,1885 "/>
   <path class="fil7" d="M8079 3855l1716 -1140 0 -167 1 -157 -1718 1138 -2039 -1393 2 329c629,474 1393,979 2038,1390z"/>
   <path class="fil7" d="M8048 3103l2103 -1348 -3 -350c-680,416 -1420,914 -2097,1350l-1968 -1392 -36 333c456,368 1484,1045 2001,1407z"/>
   <polygon class="fil7" points="8069,4627 8325,4463 9137,3925 9159,3596 8081,4283 6558,3240 6040,2900 6044,3214 "/>
  </g>
 </g>
</svg>
