<?xml version="1.0" encoding="UTF-8"?>
<!DOCTYPE svg PUBLIC "-//W3C//DTD SVG 1.1//EN" "http://www.w3.org/Graphics/SVG/1.1/DTD/svg11.dtd">
<!-- Creator: CorelDRAW X7 -->
<svg xmlns="http://www.w3.org/2000/svg" xml:space="preserve" width="168.566mm" height="17.1221mm" version="1.1" style="shape-rendering:geometricPrecision; text-rendering:geometricPrecision; image-rendering:optimizeQuality; fill-rule:evenodd; clip-rule:evenodd"
viewBox="0 0 16808 1707"
 xmlns:xlink="http://www.w3.org/1999/xlink">
 <defs>
  <style type="text/css">
   <![CDATA[
    .fil1 {fill:#FEFEFE}
    .fil0 {fill:#324979}
   ]]>
  </style>
 </defs>
 <g id="Layer_x0020_1">
  <metadata id="CorelCorpID_0Corel-Layer"/>
  <g id="_2557783824336">
   <path class="fil0" d="M9842 1684l-318 0c-14,-267 -26,-534 -39,-799 -12,-4 -23,-9 -35,-14 -116,205 -226,413 -351,612 -200,319 -269,268 -429,5 -129,-211 -253,-425 -417,-627 0,271 0,542 0,820 -103,0 -188,0 -289,0 -4,-91 -11,-171 -11,-250 -1,-375 -6,-750 5,-1124 6,-205 176,-287 297,-95 211,336 410,680 628,1046 110,-189 213,-362 315,-537 97,-166 184,-339 292,-499 127,-190 296,-131 320,72 25,214 27,431 31,647l1 743z"/>
   <path class="fil0" d="M2303 839c0,279 0,558 0,845l-282 -2c1,-333 -3,-1049 4,-1422 3,-175 187,-217 273,-81 181,287 348,582 521,875 34,59 70,117 124,208 72,-122 130,-220 187,-319 147,-253 288,-509 444,-757 33,-53 116,-102 174,-101 39,1 107,95 108,149l4 1450 -279 0c0,-287 0,-568 0,-846 -14,-5 -28,-10 -42,-14 -142,248 -279,499 -428,744 -34,55 -105,115 -164,120 -49,5 -124,-55 -156,-106 -155,-247 -300,-500 -448,-751 -13,3 -27,5 -40,8z"/>
   <path class="fil0" d="M7620 1684l-272 0 -1 -372c-322,0 -684,8 -1016,8l2 364 -265 0 7 -1055c59,-317 309,-491 629,-521 238,-22 480,-11 719,-16 122,-3 194,58 195,177 4,467 2,922 2,1415zm-1269 -693l0 0c321,0 645,0 988,0 -10,-204 -19,-393 -29,-594 -201,0 -377,-12 -551,2 -310,25 -480,271 -408,592z"/>
   <path class="fil0" d="M1400 1318c-332,0 -674,0 -1011,0l-1 366c-87,0 -186,0 -311,0 0,-351 2,-707 56,-1048 46,-297 320,-505 624,-528 244,-18 490,-13 736,-15 98,-1 179,32 179,146 3,478 1,957 1,1445l-276 0 3 -366zm-20 -923l0 0c-75,0 -138,0 -201,0 -128,1 -259,-11 -386,7 -288,38 -444,273 -389,587 322,0 647,0 976,0 0,-194 0,-384 0,-594z"/>
   <path class="fil0" d="M16499 726c0,-209 0,-406 0,-599l309 -2 -10 1559 -289 0 8 -625c-326,0 -676,2 -1014,2 0,201 0,408 0,619 -109,0 -193,0 -292,0 0,-530 0,-1048 0,-1577 87,0 171,0 282,0 0,207 0,408 0,623 346,0 665,0 1006,0z"/>
   <path class="fil0" d="M13231 1392l0 292c-391,0 -751,1 -1122,-2 -175,-10 -308,-174 -314,-352 -12,-357 -13,-714 -2,-1071 2,-56 88,-156 138,-157l1300 -6 0 295c-387,0 -746,-3 -1140,-3 0,313 -5,603 6,894 1,34 85,91 133,94 251,13 503,13 754,17l247 -1z"/>
   <path class="fil0" d="M14912 1684c-365,0 -726,18 -1091,2 -181,-8 -323,-170 -331,-354 -13,-286 -18,-574 -4,-859 12,-251 161,-377 413,-381l1013 -2 0 305c-311,0 -622,8 -936,-3 -156,-5 -208,48 -200,201 10,210 6,421 1,632 -2,103 35,153 139,154l996 8 0 297z"/>
   <path class="fil0" d="M10961 1684l-315 0c0,-428 -1,-851 -1,-1290 -218,0 -408,0 -614,0 0,-105 0,-188 0,-288 503,0 998,-21 1513,-21l0 309 -583 0c0,438 0,844 0,1290z"/>
   <path class="fil0" d="M5841 159c-253,234 -506,468 -793,733 283,256 552,500 821,743 -120,147 -453,46 -567,-99l-500 -456 -250 -142 16 -198c189,54 326,-81 435,-192 103,-104 220,-196 307,-312 96,-126 434,-241 531,-77z"/>
   <path class="fil0" d="M4215 102c98,0 178,0 273,0l0 1582 -273 0 0 -1582z"/>
   <path class="fil0" d="M13127 747l-3 289c-312,0 -622,0 -929,0 0,-102 0,-191 0,-289l932 0z"/>
   <path class="fil1" d="M9697 1595l-312 0 -17 -819c-96,168 -218,346 -314,514 -44,76 -84,154 -131,228 -86,136 -214,136 -298,-4 -150,-248 -295,-499 -478,-738l0 819 -298 1c-13,-374 -8,-963 -1,-1387 5,-205 185,-260 295,-84 212,335 411,679 627,1042 40,-61 76,-110 106,-162 173,-298 340,-600 520,-894 33,-55 117,-117 170,-111 49,6 124,98 125,153l6 1442z"/>
   <path class="fil1" d="M3752 1596l-291 -1c0,-286 9,-565 9,-843 -13,-5 -26,-9 -39,-13 -137,239 -270,481 -414,716 -38,63 -117,156 -161,148 -75,-13 -157,-84 -202,-153 -148,-229 -282,-468 -454,-699l0 844 -289 0c0,-81 0,-153 0,-227 0,-398 -4,-797 5,-1195 4,-171 187,-215 274,-76 181,287 348,582 521,875 34,58 70,116 123,203 108,-182 202,-340 295,-499 112,-193 216,-390 337,-576 33,-53 117,-101 175,-99 39,2 105,97 106,151l5 1444z"/>
   <path class="fil1" d="M7512 1595l-272 1 -4 -358 -985 0 -3 357 -319 0c2,-375 -23,-735 44,-1097 91,-277 309,-444 600,-472 250,-25 503,-14 754,-17 127,-2 183,74 184,188 3,462 1,910 1,1398zm-274 -1280l-35 -3c-204,0 -374,-10 -542,2 -320,22 -500,278 -413,591 319,0 642,0 981,0l9 -590z"/>
   <path class="fil1" d="M1564 1595l-289 1 0 -357 -981 0 0 356c-89,0 -204,0 -281,0 0,-348 -35,-694 10,-1029 41,-311 316,-519 628,-542 245,-19 491,-13 736,-15 99,-1 176,36 177,149 1,478 0,942 0,1437zm-289 -1285l0 0c-160,0 -299,0 -439,1 -47,0 -94,-3 -140,3 -296,39 -467,287 -396,593 321,0 645,0 975,0 0,-196 0,-382 0,-597z"/>
   <path class="fil1" d="M15095 9l293 0c0,210 -1,417 -1,631 338,0 657,0 994,0l0 -631c96,-1 182,0 290,0 0,539 0,1065 0,1586l-290 1c-2,0 1,-539 0,-618 -328,0 -653,1 -989,1 0,204 0,406 0,618 -103,0 -187,0 -288,0l-9 -1588z"/>
   <path class="fil1" d="M11980 308c0,297 5,561 -2,824 -2,111 35,164 147,165 328,13 682,18 1011,19l0 280 -1011 -13c-261,-2 -439,-133 -445,-394 -7,-328 -3,-656 -4,-983 0,-115 35,-198 167,-198l1291 -1 3 300c-391,0 -764,1 -1157,1z"/>
   <path class="fil1" d="M14825 9l0 302c-268,0 -518,-2 -772,1 -424,5 -382,-73 -384,380 0,134 12,270 -3,403 -17,161 63,209 200,211 252,2 503,2 755,3l203 0 0 286 -1040 0c-216,-8 -394,-141 -404,-355 -13,-291 -13,-585 1,-876 10,-205 135,-329 329,-349 145,-15 296,-3 442,-4l673 -2z"/>
   <path class="fil1" d="M11484 22l0 280c-214,0 -412,0 -631,0 0,446 0,863 0,1293 -110,0 -200,0 -317,0 0,-428 0,-845 0,-1284 -217,0 -408,0 -614,0 0,-105 0,-188 0,-289l1562 0z"/>
   <path class="fil1" d="M4543 675c569,-359 617,-760 1213,-647 -289,261 -547,494 -843,761 307,278 577,521 846,764 -120,146 -453,42 -567,-102l-640 -608 -79 -1 0 -167 70 0z"/>
   <path class="fil1" d="M4106 19c99,0 178,0 273,0 0,533 0,1056 0,1592 -95,-6 -180,-10 -273,-16 0,-529 0,-1047 0,-1576z"/>
   <path class="fil1" d="M12996 666l0 283c-308,0 -599,0 -908,0 0,-96 0,-185 0,-283l908 0z"/>
  </g>
 </g>
</svg>
