<?xml version="1.0" encoding="UTF-8"?>
<!DOCTYPE svg PUBLIC "-//W3C//DTD SVG 1.1//EN" "http://www.w3.org/Graphics/SVG/1.1/DTD/svg11.dtd">
<!-- Creator: CorelDRAW X7 -->
<svg xmlns="http://www.w3.org/2000/svg" xml:space="preserve" width="180.766mm" height="93.2496mm" version="1.1" style="shape-rendering:geometricPrecision; text-rendering:geometricPrecision; image-rendering:optimizeQuality; fill-rule:evenodd; clip-rule:evenodd"
viewBox="0 0 17493 9024"
 xmlns:xlink="http://www.w3.org/1999/xlink">
 <defs>
  <style type="text/css">
   <![CDATA[
    .str0 {stroke:#2B2A29;stroke-width:19.3538}
    .fil2 {fill:#FEFEFE}
    .fil0 {fill:#2B2A29}
    .fil1 {fill:#324979}
    .fil8 {fill:#0AF2AA}
    .fil6 {fill:#121212}
    .fil7 {fill:#131313}
    .fil5 {fill:#2C765A}
    .fil4 {fill:#2C7B5B}
    .fil3 {fill:#3CB4EC}
   ]]>
  </style>
 </defs>
 <g id="Layer_x0020_1">
  <metadata id="CorelCorpID_0Corel-Layer"/>
  <rect class="fil0 str0" x="10" y="10" width="17473" height="9004"/>
  <g id="_2559753527792">
   <path class="fil1" d="M10137 7598l-309 1c-13,-260 -24,-519 -37,-776 -12,-4 -23,-9 -35,-13 -112,198 -219,400 -340,593 -194,310 -261,260 -416,5 -126,-205 -246,-413 -405,-609 0,264 0,527 0,796 -100,0 -182,0 -281,0 -4,-88 -10,-165 -10,-242 -1,-364 -6,-728 4,-1091 6,-199 171,-278 289,-92 204,326 397,659 609,1015 107,-183 208,-352 306,-521 94,-162 179,-329 283,-484 124,-185 287,-127 311,69 24,208 26,418 30,628l1 721z"/>
   <path class="fil1" d="M2820 6778c0,271 0,542 0,820l-274 -1c2,-324 -2,-1019 5,-1381 3,-170 181,-210 265,-78 175,279 338,565 505,849 34,57 68,114 121,201 69,-118 126,-213 181,-309 143,-245 280,-494 431,-735 32,-51 112,-99 169,-97 38,1 104,92 105,144l4 1407 -272 0c0,-278 0,-551 0,-821 -13,-5 -27,-9 -40,-14 -138,242 -271,485 -416,722 -33,54 -101,112 -158,118 -48,4 -121,-54 -152,-103 -150,-240 -291,-486 -435,-730 -13,3 -26,6 -39,8z"/>
   <path class="fil1" d="M7980 7598l-263 1 -1 -362c-313,0 -664,8 -986,8l1 353 -257 0 7 -1023c58,-309 300,-477 611,-506 231,-22 465,-11 698,-16 118,-2 188,56 189,172 4,453 1,895 1,1373zm-1231 -672l0 0c311,0 626,0 959,0 -10,-198 -18,-382 -28,-577 -196,0 -366,-11 -534,2 -302,25 -467,263 -397,575z"/>
   <path class="fil1" d="M1944 7243c-322,0 -654,0 -981,0l-1 356c-84,0 -181,-1 -302,-1 0,-340 2,-686 55,-1017 44,-288 310,-490 605,-512 237,-18 476,-13 714,-15 95,-1 174,31 174,142 3,464 1,929 1,1402l-267 0 2 -355zm-20 -895l0 0c-72,0 -133,-1 -194,0 -125,1 -252,-11 -375,6 -279,38 -430,265 -377,570 312,0 627,0 946,0 0,-189 0,-373 0,-576z"/>
   <path class="fil1" d="M16598 6669c0,-203 0,-395 0,-582l300 -2 -11 1513 -280 0 8 -606c-316,0 -656,2 -984,2 0,195 0,396 0,600 -106,0 -188,0 -284,0 0,-514 0,-1016 0,-1530 85,0 167,0 275,0 0,201 0,396 0,605 335,0 644,0 976,0z"/>
   <path class="fil1" d="M13426 7315l0 283c-379,0 -729,2 -1089,-2 -170,-9 -299,-168 -305,-341 -11,-346 -12,-693 -1,-1039 2,-55 85,-152 133,-153l1262 -6 0 287c-376,0 -724,-3 -1107,-3 0,303 -4,585 6,867 2,33 83,89 130,91 243,13 488,13 732,17l239 -1z"/>
   <path class="fil1" d="M15057 7598c-353,0 -704,18 -1059,2 -175,-7 -313,-165 -321,-344 -12,-277 -17,-556 -3,-833 11,-243 156,-366 400,-370l983 -1 0 296c-301,0 -603,7 -908,-3 -151,-6 -202,46 -194,194 10,204 6,409 1,614 -3,99 34,148 135,150l966 7 0 288z"/>
   <path class="fil1" d="M11223 7598l-306 1c0,-416 -1,-826 -1,-1252 -211,0 -396,0 -596,0 0,-102 0,-183 0,-281 489,0 969,-19 1469,-19l0 300 -566 0c0,425 0,818 0,1251z"/>
   <path class="fil1" d="M6254 6118c-245,227 -491,454 -769,712 274,248 536,485 797,721 -117,143 -440,44 -551,-96l-485 -443 -243 -138 16 -192c183,53 316,-78 422,-186 100,-101 213,-191 298,-303 93,-122 421,-234 515,-75z"/>
   <path class="fil1" d="M4676 6063c95,0 173,0 265,0l0 1535 -265 0 0 -1535z"/>
   <path class="fil1" d="M13325 6689l-3 280c-302,0 -603,0 -902,0 0,-98 0,-185 0,-280l905 0z"/>
   <path class="fil2" d="M9996 7512l-302 0 -17 -795c-93,163 -212,336 -305,499 -42,73 -81,149 -127,221 -83,132 -207,132 -289,-4 -146,-240 -286,-484 -464,-716l0 795 -289 0c-13,-363 -8,-933 -1,-1345 5,-199 179,-252 287,-82 205,326 398,659 607,1011 39,-58 74,-106 104,-157 168,-289 330,-582 504,-867 32,-53 114,-114 165,-108 48,6 121,95 122,149l5 1399z"/>
   <path class="fil2" d="M4227 7512l-283 0c0,-278 9,-548 9,-819 -12,-4 -25,-8 -37,-12 -133,232 -263,467 -402,695 -37,61 -114,151 -157,144 -73,-13 -152,-82 -195,-148 -145,-223 -274,-455 -441,-679l0 819 -280 0c0,-78 0,-149 0,-220 0,-387 -4,-773 4,-1160 4,-166 181,-208 266,-73 175,278 338,564 505,848 34,57 69,113 120,197 104,-176 196,-330 286,-484 109,-187 209,-379 327,-559 33,-51 114,-98 171,-96 37,2 101,94 102,147l5 1400z"/>
   <path class="fil2" d="M7876 7512l-265 0 -3 -347 -956 0 -3 347 -310 0c3,-364 -22,-713 43,-1065 89,-269 300,-431 583,-458 242,-24 488,-13 732,-17 122,-1 177,73 178,184 3,448 1,882 1,1356zm-267 -1243l-33 -2c-198,0 -363,-9 -526,2 -311,21 -485,270 -401,573 310,0 623,0 953,0l7 -573z"/>
   <path class="fil2" d="M2104 7512l-281 0 0 -346 -952 0 0 346c-86,0 -198,0 -273,0 0,-338 -33,-673 10,-999 39,-302 306,-503 610,-526 237,-18 476,-12 714,-15 96,-1 171,36 171,145 2,464 1,914 1,1395zm-281 -1247l0 0c-155,0 -290,0 -426,0 -45,1 -91,-2 -136,4 -287,38 -453,279 -384,575 311,0 626,0 946,0 0,-190 0,-371 0,-579z"/>
   <path class="fil2" d="M15235 5973l284 0c0,203 0,405 0,612 327,0 637,0 964,0l0 -612c93,-1 176,0 281,0 0,523 1,1033 0,1539l-281 1c-2,0 1,-523 0,-600 -318,0 -634,1 -960,1 0,198 0,394 0,600 -100,0 -181,0 -279,0l-9 -1541z"/>
   <path class="fil2" d="M12212 6263c0,288 5,544 -2,799 -2,108 34,160 143,161 318,12 662,17 981,18l0 271 -981 -12c-254,-2 -427,-129 -432,-382 -7,-318 -3,-636 -4,-954 0,-111 34,-192 162,-192l1253 -1 2 291c-379,0 -741,1 -1122,1z"/>
   <path class="fil2" d="M14972 5973l0 293c-259,0 -501,-3 -749,1 -411,5 -370,-71 -372,368 0,131 11,263 -3,392 -16,156 61,203 194,204 244,2 488,2 733,3l197 0 0 278 -1009 0c-210,-8 -382,-137 -392,-344 -13,-283 -13,-568 0,-851 10,-198 132,-319 320,-338 141,-15 287,-3 428,-4l653 -2z"/>
   <path class="fil2" d="M11731 5985l-1 272c-207,0 -399,0 -612,0 0,433 0,838 0,1255 -107,0 -193,0 -307,0 0,-416 0,-820 0,-1246 -211,0 -396,0 -597,0 0,-102 0,-183 0,-281l1517 0z"/>
   <path class="fil2" d="M4994 6619c553,-348 599,-737 1178,-628 -281,254 -532,480 -818,739 298,269 559,505 820,741 -116,142 -439,41 -550,-98l-621 -591 -77 -1 0 -162 68 0z"/>
   <path class="fil2" d="M4570 5982c96,0 173,0 266,0 0,518 0,1025 0,1545 -93,-5 -175,-10 -266,-15 0,-514 0,-1016 0,-1530z"/>
   <path class="fil2" d="M13198 6611l0 274c-299,0 -581,0 -881,0 0,-93 0,-179 0,-274l881 0z"/>
  </g>
  <g id="_2557786683392">
   <path class="fil3" d="M6686 1982l254 201c533,-405 1188,-836 1750,-1233l1805 1254 273 -177 -2074 -1412 -2008 1367z"/>
   <path class="fil3" d="M7195 2356c97,68 164,114 266,174l1210 -857c79,47 195,126 288,189 80,54 180,146 293,215l693 469c79,-10 236,-105 268,-167l-1543 -1037 -1475 1014z"/>
   <path class="fil3" d="M7773 2751l231 163 684 -493 705 507 262 -181 -966 -663c-266,177 -647,468 -916,667z"/>
   <path class="fil4" d="M10764 2061l2 314 -2076 1328 -33 24 124 82c87,-32 1700,-1116 2060,-1357l-5 -369 -73 -60 1 38z"/>
   <path class="fil5" d="M10409 3170l0 168 -1720 1143 -6 -4c45,33 82,53 133,94l1700 -1129 -1 -319 -106 47z"/>
   <polygon class="fil5" points="6912,2166 7051,2255 8808,1026 8692,948 "/>
   <polygon class="fil5" points="7444,2520 7610,2636 8801,1756 8671,1673 "/>
   <path class="fil5" d="M9757 4388l-8 163c-150,92 -1020,690 -1106,676l189 169 1042 -729 2 -338 -119 59z"/>
   <polygon class="fil5" points="8004,2914 8133,3006 8824,2505 8689,2418 "/>
   <path class="fil6" d="M7032 2242l180 127c18,13 1309,-915 1458,-1027l1543 1037 282 -175 -1687 -1178 -14 -9 -1762 1225z"/>
   <polygon class="fil7" points="7576,2611 7773,2751 8690,2094 9655,2747 9945,2546 8801,1756 "/>
   <polygon class="fil6" points="8133,3006 8660,3378 9373,2914 8824,2505 "/>
   <path class="fil8" d="M8688 4481l1721 -1143 0 -168 1 -157 -1723 1141 -2045 -1396 2 330c631,475 1397,981 2044,1393z"/>
   <path class="fil8" d="M8657 3727l2109 -1352 -3 -351c-682,417 -1425,917 -2103,1354l-1974 -1396 -36 334c457,369 1489,1048 2007,1411z"/>
   <polygon class="fil8" points="8678,5255 8934,5091 9749,4551 9771,4221 8690,4911 7162,3865 6643,3523 6647,3838 "/>
  </g>
 </g>
</svg>
